G04 #@! TF.GenerationSoftware,KiCad,Pcbnew,(5.1.8-0-10_14)*
G04 #@! TF.CreationDate,2021-07-28T22:27:14+02:00*
G04 #@! TF.ProjectId,C64_PLA,4336345f-504c-4412-9e6b-696361645f70,rev?*
G04 #@! TF.SameCoordinates,Original*
G04 #@! TF.FileFunction,Copper,L1,Top*
G04 #@! TF.FilePolarity,Positive*
%FSLAX46Y46*%
G04 Gerber Fmt 4.6, Leading zero omitted, Abs format (unit mm)*
G04 Created by KiCad (PCBNEW (5.1.8-0-10_14)) date 2021-07-28 22:27:14*
%MOMM*%
%LPD*%
G01*
G04 APERTURE LIST*
G04 #@! TA.AperFunction,ComponentPad*
%ADD10C,1.700000*%
G04 #@! TD*
G04 #@! TA.AperFunction,ComponentPad*
%ADD11O,1.600000X1.600000*%
G04 #@! TD*
G04 #@! TA.AperFunction,ComponentPad*
%ADD12R,1.600000X1.600000*%
G04 #@! TD*
G04 #@! TA.AperFunction,ComponentPad*
%ADD13O,1.700000X1.700000*%
G04 #@! TD*
G04 #@! TA.AperFunction,ComponentPad*
%ADD14R,1.700000X1.700000*%
G04 #@! TD*
G04 #@! TA.AperFunction,ComponentPad*
%ADD15C,1.422400*%
G04 #@! TD*
G04 #@! TA.AperFunction,ComponentPad*
%ADD16R,1.422400X1.422400*%
G04 #@! TD*
G04 #@! TA.AperFunction,ViaPad*
%ADD17C,0.800000*%
G04 #@! TD*
G04 #@! TA.AperFunction,Conductor*
%ADD18C,0.250000*%
G04 #@! TD*
G04 #@! TA.AperFunction,Conductor*
%ADD19C,0.254000*%
G04 #@! TD*
G04 #@! TA.AperFunction,Conductor*
%ADD20C,0.100000*%
G04 #@! TD*
G04 APERTURE END LIST*
G04 #@! TA.AperFunction,ComponentPad*
G36*
G01*
X143310000Y-136390000D02*
X142110000Y-136390000D01*
G75*
G02*
X141860000Y-136140000I0J250000D01*
G01*
X141860000Y-134940000D01*
G75*
G02*
X142110000Y-134690000I250000J0D01*
G01*
X143310000Y-134690000D01*
G75*
G02*
X143560000Y-134940000I0J-250000D01*
G01*
X143560000Y-136140000D01*
G75*
G02*
X143310000Y-136390000I-250000J0D01*
G01*
G37*
G04 #@! TD.AperFunction*
D10*
X145250000Y-135540000D03*
X147790000Y-135540000D03*
X150330000Y-135540000D03*
X152870000Y-135540000D03*
X142710000Y-133000000D03*
X145250000Y-133000000D03*
X147790000Y-133000000D03*
X150330000Y-133000000D03*
X152870000Y-133000000D03*
D11*
X155467600Y-102617000D03*
X140227600Y-135637000D03*
X155467600Y-105157000D03*
X140227600Y-133097000D03*
X155467600Y-107697000D03*
X140227600Y-130557000D03*
X155467600Y-110237000D03*
X140227600Y-128017000D03*
X155467600Y-112777000D03*
X140227600Y-125477000D03*
X155467600Y-115317000D03*
X140227600Y-122937000D03*
X155467600Y-117857000D03*
X140227600Y-120397000D03*
X155467600Y-120397000D03*
X140227600Y-117857000D03*
X155467600Y-122937000D03*
X140227600Y-115317000D03*
X155467600Y-125477000D03*
X140227600Y-112777000D03*
X155467600Y-128017000D03*
X140227600Y-110237000D03*
X155467600Y-130557000D03*
X140227600Y-107697000D03*
X155467600Y-133097000D03*
X140227600Y-105157000D03*
X155467600Y-135637000D03*
D12*
X140227600Y-102617000D03*
D13*
X149000000Y-103000000D03*
D14*
X146460000Y-103000000D03*
D15*
X156620000Y-111500000D03*
X156620000Y-114040000D03*
X156620000Y-116580000D03*
X156620000Y-119120000D03*
X156620000Y-121660000D03*
X154080000Y-108960000D03*
X154080000Y-114040000D03*
X154080000Y-116580000D03*
X154080000Y-119120000D03*
X154080000Y-121660000D03*
X154080000Y-124200000D03*
X154080000Y-126740000D03*
X151540000Y-126740000D03*
X149000000Y-126740000D03*
X146460000Y-126740000D03*
X143920000Y-126740000D03*
X141380000Y-126740000D03*
X156620000Y-124200000D03*
X151540000Y-124200000D03*
X149000000Y-124200000D03*
X146460000Y-124200000D03*
X143920000Y-124200000D03*
X141380000Y-124200000D03*
X138840000Y-124200000D03*
X138840000Y-121660000D03*
X138840000Y-119120000D03*
X138840000Y-116580000D03*
X138840000Y-114040000D03*
X138840000Y-111500000D03*
X141380000Y-121660000D03*
X141380000Y-119120000D03*
X141380000Y-116580000D03*
X141380000Y-114040000D03*
X141380000Y-111500000D03*
X151540000Y-108960000D03*
X149000000Y-108960000D03*
X141380000Y-108960000D03*
X143920000Y-108960000D03*
X146460000Y-108960000D03*
X154080000Y-111500000D03*
X151540000Y-111500000D03*
X143920000Y-111500000D03*
X146460000Y-111500000D03*
D16*
X149000000Y-111500000D03*
D17*
X138426800Y-126523700D03*
X138428300Y-109478500D03*
X152293200Y-122882000D03*
X147781700Y-123557800D03*
X150036600Y-119628000D03*
X157609100Y-125800400D03*
X142650000Y-119740500D03*
X150487100Y-107774200D03*
X151002700Y-118617400D03*
D18*
X149000000Y-103000000D02*
X149000000Y-104175300D01*
X151540000Y-108960000D02*
X151540000Y-106715300D01*
X151540000Y-106715300D02*
X149000000Y-104175300D01*
X141380000Y-114040000D02*
X145415300Y-118075300D01*
X145415300Y-118075300D02*
X145415300Y-125695300D01*
X145415300Y-125695300D02*
X146460000Y-126740000D01*
X147824700Y-103000000D02*
X147824700Y-102192000D01*
X147824700Y-102192000D02*
X147457300Y-101824600D01*
X147457300Y-101824600D02*
X145417500Y-101824600D01*
X145417500Y-101824600D02*
X142873500Y-104368600D01*
X142873500Y-104368600D02*
X142873500Y-112546500D01*
X142873500Y-112546500D02*
X141380000Y-114040000D01*
X149000000Y-103000000D02*
X147824700Y-103000000D01*
X142710000Y-133000000D02*
X146460000Y-129250000D01*
X146460000Y-129250000D02*
X146460000Y-126740000D01*
X145250000Y-133000000D02*
X144033100Y-134216900D01*
X144033100Y-134216900D02*
X142234600Y-134216900D01*
X142234600Y-134216900D02*
X141353000Y-133335300D01*
X141353000Y-133335300D02*
X141353000Y-130084900D01*
X141353000Y-130084900D02*
X140555100Y-129287000D01*
X140555100Y-129287000D02*
X139828700Y-129287000D01*
X139828700Y-129287000D02*
X138426800Y-127885100D01*
X138426800Y-127885100D02*
X138426800Y-126523700D01*
X146460000Y-124200000D02*
X147506900Y-125246900D01*
X147506900Y-125246900D02*
X147506900Y-130743100D01*
X147506900Y-130743100D02*
X145250000Y-133000000D01*
X146460000Y-111500000D02*
X146460000Y-124200000D01*
X146460000Y-104175300D02*
X145418200Y-105217100D01*
X145418200Y-105217100D02*
X145418200Y-110458200D01*
X145418200Y-110458200D02*
X146460000Y-111500000D01*
X155467600Y-102617000D02*
X155467600Y-103742300D01*
X155467600Y-103742300D02*
X155748900Y-103742300D01*
X155748900Y-103742300D02*
X157675600Y-105669000D01*
X157675600Y-105669000D02*
X157675600Y-115524400D01*
X157675600Y-115524400D02*
X156620000Y-116580000D01*
X146460000Y-103000000D02*
X146460000Y-104175300D01*
X152870000Y-135540000D02*
X150736900Y-137673100D01*
X150736900Y-137673100D02*
X140649800Y-137673100D01*
X140649800Y-137673100D02*
X137347000Y-134370300D01*
X137347000Y-134370300D02*
X137347000Y-110559800D01*
X137347000Y-110559800D02*
X138428300Y-109478500D01*
X154080000Y-114040000D02*
X152311700Y-115808300D01*
X152311700Y-115808300D02*
X152311700Y-118545100D01*
X152311700Y-118545100D02*
X150270000Y-120586800D01*
X150270000Y-120586800D02*
X150270000Y-128616900D01*
X150270000Y-128616900D02*
X146614600Y-132272300D01*
X146614600Y-132272300D02*
X146614600Y-134175400D01*
X146614600Y-134175400D02*
X145250000Y-135540000D01*
X142710000Y-135540000D02*
X143890300Y-136720300D01*
X143890300Y-136720300D02*
X145734100Y-136720300D01*
X145734100Y-136720300D02*
X146464500Y-135989900D01*
X146464500Y-135989900D02*
X146464500Y-135201200D01*
X146464500Y-135201200D02*
X147490300Y-134175400D01*
X147490300Y-134175400D02*
X148315600Y-134175400D01*
X148315600Y-134175400D02*
X149060000Y-133431000D01*
X149060000Y-133431000D02*
X149060000Y-132542400D01*
X149060000Y-132542400D02*
X152576600Y-129025800D01*
X152576600Y-129025800D02*
X152576600Y-123165400D01*
X152576600Y-123165400D02*
X152293200Y-122882000D01*
X140227600Y-133097000D02*
X140227600Y-134222300D01*
X156620000Y-124200000D02*
X156620000Y-128464700D01*
X156620000Y-128464700D02*
X155797700Y-129287000D01*
X155797700Y-129287000D02*
X154884900Y-129287000D01*
X154884900Y-129287000D02*
X151600000Y-132571900D01*
X151600000Y-132571900D02*
X151600000Y-135943800D01*
X151600000Y-135943800D02*
X150372600Y-137171200D01*
X150372600Y-137171200D02*
X142305400Y-137171200D01*
X142305400Y-137171200D02*
X141352900Y-136218700D01*
X141352900Y-136218700D02*
X141352900Y-135066200D01*
X141352900Y-135066200D02*
X140509000Y-134222300D01*
X140509000Y-134222300D02*
X140227600Y-134222300D01*
X154080000Y-111500000D02*
X153022400Y-110442400D01*
X153022400Y-110442400D02*
X153022400Y-108525400D01*
X153022400Y-108525400D02*
X153850800Y-107697000D01*
X153850800Y-107697000D02*
X155467600Y-107697000D01*
X149000000Y-126740000D02*
X147963400Y-125703400D01*
X147963400Y-125703400D02*
X147963400Y-123739500D01*
X147963400Y-123739500D02*
X147781700Y-123557800D01*
X149000000Y-108960000D02*
X150036600Y-109996600D01*
X150036600Y-109996600D02*
X150036600Y-119628000D01*
X143920000Y-124200000D02*
X143920000Y-119911700D01*
X143920000Y-119911700D02*
X141865300Y-117857000D01*
X141865300Y-117857000D02*
X140227600Y-117857000D01*
X155467600Y-122937000D02*
X156832900Y-122937000D01*
X156832900Y-122937000D02*
X157705300Y-123809400D01*
X157705300Y-123809400D02*
X157705300Y-125704200D01*
X157705300Y-125704200D02*
X157609100Y-125800400D01*
X140227600Y-115317000D02*
X141592900Y-115317000D01*
X141592900Y-115317000D02*
X144964900Y-118689000D01*
X144964900Y-118689000D02*
X144964900Y-125695100D01*
X144964900Y-125695100D02*
X143920000Y-126740000D01*
X141380000Y-126740000D02*
X142650000Y-125470000D01*
X142650000Y-125470000D02*
X142650000Y-119740500D01*
X154080000Y-116580000D02*
X153027100Y-117632900D01*
X153027100Y-117632900D02*
X153027100Y-127176300D01*
X153027100Y-127176300D02*
X153867800Y-128017000D01*
X153867800Y-128017000D02*
X155467600Y-128017000D01*
X138840000Y-124200000D02*
X137802600Y-123162600D01*
X137802600Y-123162600D02*
X137802600Y-111039600D01*
X137802600Y-111039600D02*
X138605200Y-110237000D01*
X138605200Y-110237000D02*
X140227600Y-110237000D01*
X155467600Y-130557000D02*
X155467600Y-131682300D01*
X156620000Y-119120000D02*
X158788400Y-121288400D01*
X158788400Y-121288400D02*
X158788400Y-133929800D01*
X158788400Y-133929800D02*
X155951700Y-136766500D01*
X155951700Y-136766500D02*
X154881700Y-136766500D01*
X154881700Y-136766500D02*
X154342300Y-136227100D01*
X154342300Y-136227100D02*
X154342300Y-132526200D01*
X154342300Y-132526200D02*
X155186200Y-131682300D01*
X155186200Y-131682300D02*
X155467600Y-131682300D01*
X151002700Y-118617400D02*
X150487100Y-118101800D01*
X150487100Y-118101800D02*
X150487100Y-107774200D01*
X156620000Y-121660000D02*
X158338000Y-123378000D01*
X158338000Y-123378000D02*
X158338000Y-131845600D01*
X158338000Y-131845600D02*
X155671900Y-134511700D01*
X155671900Y-134511700D02*
X155467600Y-134511700D01*
X155467600Y-135637000D02*
X155467600Y-134511700D01*
X140227600Y-102617000D02*
X140227600Y-103742300D01*
X141380000Y-111500000D02*
X142423000Y-110457000D01*
X142423000Y-110457000D02*
X142423000Y-105656400D01*
X142423000Y-105656400D02*
X140508900Y-103742300D01*
X140508900Y-103742300D02*
X140227600Y-103742300D01*
D19*
X159340000Y-120762533D02*
X159328401Y-120748399D01*
X159299404Y-120724602D01*
X157943170Y-119368369D01*
X157966200Y-119252589D01*
X157966200Y-118987411D01*
X157914467Y-118727328D01*
X157812987Y-118482335D01*
X157665662Y-118261847D01*
X157478153Y-118074338D01*
X157257665Y-117927013D01*
X157069400Y-117849031D01*
X157205280Y-117799542D01*
X157308848Y-117744183D01*
X157369668Y-117509273D01*
X156620000Y-116759605D01*
X156605858Y-116773748D01*
X156426253Y-116594143D01*
X156440395Y-116580000D01*
X156799605Y-116580000D01*
X157549273Y-117329668D01*
X157784183Y-117268848D01*
X157896202Y-117028491D01*
X157959176Y-116770898D01*
X157970687Y-116505970D01*
X157930291Y-116243887D01*
X157839542Y-115994720D01*
X157784183Y-115891152D01*
X157549273Y-115830332D01*
X156799605Y-116580000D01*
X156440395Y-116580000D01*
X156426253Y-116565858D01*
X156605858Y-116386253D01*
X156620000Y-116400395D01*
X157369668Y-115650727D01*
X157308848Y-115415817D01*
X157077066Y-115307794D01*
X157257665Y-115232987D01*
X157478153Y-115085662D01*
X157665662Y-114898153D01*
X157812987Y-114677665D01*
X157914467Y-114432672D01*
X157966200Y-114172589D01*
X157966200Y-113907411D01*
X157914467Y-113647328D01*
X157812987Y-113402335D01*
X157665662Y-113181847D01*
X157478153Y-112994338D01*
X157257665Y-112847013D01*
X157071740Y-112770000D01*
X157257665Y-112692987D01*
X157478153Y-112545662D01*
X157665662Y-112358153D01*
X157812987Y-112137665D01*
X157914467Y-111892672D01*
X157966200Y-111632589D01*
X157966200Y-111367411D01*
X157914467Y-111107328D01*
X157812987Y-110862335D01*
X157665662Y-110641847D01*
X157478153Y-110454338D01*
X157257665Y-110307013D01*
X157012672Y-110205533D01*
X156902600Y-110183639D01*
X156902600Y-110095665D01*
X156847453Y-109818426D01*
X156739280Y-109557273D01*
X156582237Y-109322241D01*
X156382359Y-109122363D01*
X156149841Y-108967000D01*
X156382359Y-108811637D01*
X156582237Y-108611759D01*
X156739280Y-108376727D01*
X156847453Y-108115574D01*
X156902600Y-107838335D01*
X156902600Y-107555665D01*
X156847453Y-107278426D01*
X156739280Y-107017273D01*
X156582237Y-106782241D01*
X156382359Y-106582363D01*
X156149841Y-106427000D01*
X156382359Y-106271637D01*
X156582237Y-106071759D01*
X156739280Y-105836727D01*
X156847453Y-105575574D01*
X156902600Y-105298335D01*
X156902600Y-105015665D01*
X156847453Y-104738426D01*
X156739280Y-104477273D01*
X156582237Y-104242241D01*
X156382359Y-104042363D01*
X156147327Y-103885320D01*
X156136735Y-103880933D01*
X156322731Y-103769385D01*
X156531119Y-103580414D01*
X156698637Y-103354420D01*
X156818846Y-103100087D01*
X156859504Y-102966039D01*
X156737515Y-102744000D01*
X155594600Y-102744000D01*
X155594600Y-102764000D01*
X155340600Y-102764000D01*
X155340600Y-102744000D01*
X154197685Y-102744000D01*
X154075696Y-102966039D01*
X154116354Y-103100087D01*
X154236563Y-103354420D01*
X154404081Y-103580414D01*
X154612469Y-103769385D01*
X154798465Y-103880933D01*
X154787873Y-103885320D01*
X154552841Y-104042363D01*
X154352963Y-104242241D01*
X154195920Y-104477273D01*
X154087747Y-104738426D01*
X154032600Y-105015665D01*
X154032600Y-105298335D01*
X154087747Y-105575574D01*
X154195920Y-105836727D01*
X154352963Y-106071759D01*
X154552841Y-106271637D01*
X154785359Y-106427000D01*
X154552841Y-106582363D01*
X154352963Y-106782241D01*
X154249557Y-106937000D01*
X153888133Y-106937000D01*
X153850800Y-106933323D01*
X153813467Y-106937000D01*
X153701814Y-106947997D01*
X153558553Y-106991454D01*
X153426524Y-107062026D01*
X153310799Y-107156999D01*
X153287001Y-107185998D01*
X152511398Y-107961601D01*
X152482400Y-107985399D01*
X152476456Y-107992641D01*
X152398153Y-107914338D01*
X152300000Y-107848754D01*
X152300000Y-106752622D01*
X152303676Y-106715299D01*
X152300000Y-106677976D01*
X152300000Y-106677967D01*
X152289003Y-106566314D01*
X152245546Y-106423053D01*
X152174974Y-106291024D01*
X152151155Y-106262000D01*
X152103799Y-106204296D01*
X152103795Y-106204292D01*
X152080001Y-106175299D01*
X152051008Y-106151505D01*
X149999804Y-104100303D01*
X150153475Y-103946632D01*
X150315990Y-103703411D01*
X150427932Y-103433158D01*
X150485000Y-103146260D01*
X150485000Y-102853740D01*
X150427932Y-102566842D01*
X150315990Y-102296589D01*
X150296862Y-102267961D01*
X154075696Y-102267961D01*
X154197685Y-102490000D01*
X155340600Y-102490000D01*
X155340600Y-101346376D01*
X155594600Y-101346376D01*
X155594600Y-102490000D01*
X156737515Y-102490000D01*
X156859504Y-102267961D01*
X156818846Y-102133913D01*
X156698637Y-101879580D01*
X156531119Y-101653586D01*
X156322731Y-101464615D01*
X156081481Y-101319930D01*
X155816640Y-101225091D01*
X155594600Y-101346376D01*
X155340600Y-101346376D01*
X155118560Y-101225091D01*
X154853719Y-101319930D01*
X154612469Y-101464615D01*
X154404081Y-101653586D01*
X154236563Y-101879580D01*
X154116354Y-102133913D01*
X154075696Y-102267961D01*
X150296862Y-102267961D01*
X150153475Y-102053368D01*
X149946632Y-101846525D01*
X149703411Y-101684010D01*
X149433158Y-101572068D01*
X149146260Y-101515000D01*
X148853740Y-101515000D01*
X148566842Y-101572068D01*
X148367027Y-101654834D01*
X148364701Y-101651999D01*
X148335697Y-101628196D01*
X148021104Y-101313603D01*
X147997301Y-101284599D01*
X147881576Y-101189626D01*
X147749547Y-101119054D01*
X147606286Y-101075597D01*
X147494633Y-101064600D01*
X147494622Y-101064600D01*
X147457300Y-101060924D01*
X147419978Y-101064600D01*
X145454822Y-101064600D01*
X145417499Y-101060924D01*
X145380176Y-101064600D01*
X145380167Y-101064600D01*
X145268514Y-101075597D01*
X145125253Y-101119054D01*
X144993224Y-101189626D01*
X144877499Y-101284599D01*
X144853701Y-101313597D01*
X142362503Y-103804796D01*
X142333499Y-103828599D01*
X142286950Y-103885320D01*
X142238526Y-103944324D01*
X142186123Y-104042363D01*
X142167954Y-104076354D01*
X142124497Y-104219615D01*
X142118805Y-104277404D01*
X141577211Y-103735810D01*
X141617102Y-103661180D01*
X141653412Y-103541482D01*
X141665672Y-103417000D01*
X141665672Y-101817000D01*
X141653412Y-101692518D01*
X141617102Y-101572820D01*
X141558137Y-101462506D01*
X141478785Y-101365815D01*
X141382094Y-101286463D01*
X141271780Y-101227498D01*
X141152082Y-101191188D01*
X141027600Y-101178928D01*
X139427600Y-101178928D01*
X139303118Y-101191188D01*
X139183420Y-101227498D01*
X139073106Y-101286463D01*
X138976415Y-101365815D01*
X138897063Y-101462506D01*
X138838098Y-101572820D01*
X138801788Y-101692518D01*
X138789528Y-101817000D01*
X138789528Y-103417000D01*
X138801788Y-103541482D01*
X138838098Y-103661180D01*
X138897063Y-103771494D01*
X138976415Y-103868185D01*
X139073106Y-103947537D01*
X139183420Y-104006502D01*
X139303118Y-104042812D01*
X139311561Y-104043643D01*
X139112963Y-104242241D01*
X138955920Y-104477273D01*
X138847747Y-104738426D01*
X138792600Y-105015665D01*
X138792600Y-105298335D01*
X138847747Y-105575574D01*
X138955920Y-105836727D01*
X139112963Y-106071759D01*
X139312841Y-106271637D01*
X139545359Y-106427000D01*
X139312841Y-106582363D01*
X139112963Y-106782241D01*
X138955920Y-107017273D01*
X138847747Y-107278426D01*
X138792600Y-107555665D01*
X138792600Y-107838335D01*
X138847747Y-108115574D01*
X138955920Y-108376727D01*
X139112963Y-108611759D01*
X139312841Y-108811637D01*
X139545359Y-108967000D01*
X139381936Y-109076195D01*
X139345505Y-108988244D01*
X139232237Y-108818726D01*
X139088074Y-108674563D01*
X138918556Y-108561295D01*
X138730198Y-108483274D01*
X138530239Y-108443500D01*
X138326361Y-108443500D01*
X138126402Y-108483274D01*
X137938044Y-108561295D01*
X137768526Y-108674563D01*
X137624363Y-108818726D01*
X137511095Y-108988244D01*
X137433074Y-109176602D01*
X137393300Y-109376561D01*
X137393300Y-109438698D01*
X136835998Y-109996001D01*
X136807000Y-110019799D01*
X136783202Y-110048797D01*
X136783201Y-110048798D01*
X136712026Y-110135524D01*
X136641454Y-110267554D01*
X136597998Y-110410815D01*
X136583324Y-110559800D01*
X136587001Y-110597133D01*
X136587000Y-134332978D01*
X136583324Y-134370300D01*
X136587000Y-134407622D01*
X136587000Y-134407632D01*
X136597997Y-134519285D01*
X136636610Y-134646576D01*
X136641454Y-134662546D01*
X136712026Y-134794576D01*
X136746506Y-134836589D01*
X136806999Y-134910301D01*
X136836003Y-134934104D01*
X140086001Y-138184103D01*
X140109799Y-138213101D01*
X140138797Y-138236899D01*
X140225524Y-138308074D01*
X140285252Y-138340000D01*
X136160000Y-138340000D01*
X136160000Y-99660000D01*
X159340001Y-99660000D01*
X159340000Y-120762533D01*
G04 #@! TA.AperFunction,Conductor*
D20*
G36*
X159340000Y-120762533D02*
G01*
X159328401Y-120748399D01*
X159299404Y-120724602D01*
X157943170Y-119368369D01*
X157966200Y-119252589D01*
X157966200Y-118987411D01*
X157914467Y-118727328D01*
X157812987Y-118482335D01*
X157665662Y-118261847D01*
X157478153Y-118074338D01*
X157257665Y-117927013D01*
X157069400Y-117849031D01*
X157205280Y-117799542D01*
X157308848Y-117744183D01*
X157369668Y-117509273D01*
X156620000Y-116759605D01*
X156605858Y-116773748D01*
X156426253Y-116594143D01*
X156440395Y-116580000D01*
X156799605Y-116580000D01*
X157549273Y-117329668D01*
X157784183Y-117268848D01*
X157896202Y-117028491D01*
X157959176Y-116770898D01*
X157970687Y-116505970D01*
X157930291Y-116243887D01*
X157839542Y-115994720D01*
X157784183Y-115891152D01*
X157549273Y-115830332D01*
X156799605Y-116580000D01*
X156440395Y-116580000D01*
X156426253Y-116565858D01*
X156605858Y-116386253D01*
X156620000Y-116400395D01*
X157369668Y-115650727D01*
X157308848Y-115415817D01*
X157077066Y-115307794D01*
X157257665Y-115232987D01*
X157478153Y-115085662D01*
X157665662Y-114898153D01*
X157812987Y-114677665D01*
X157914467Y-114432672D01*
X157966200Y-114172589D01*
X157966200Y-113907411D01*
X157914467Y-113647328D01*
X157812987Y-113402335D01*
X157665662Y-113181847D01*
X157478153Y-112994338D01*
X157257665Y-112847013D01*
X157071740Y-112770000D01*
X157257665Y-112692987D01*
X157478153Y-112545662D01*
X157665662Y-112358153D01*
X157812987Y-112137665D01*
X157914467Y-111892672D01*
X157966200Y-111632589D01*
X157966200Y-111367411D01*
X157914467Y-111107328D01*
X157812987Y-110862335D01*
X157665662Y-110641847D01*
X157478153Y-110454338D01*
X157257665Y-110307013D01*
X157012672Y-110205533D01*
X156902600Y-110183639D01*
X156902600Y-110095665D01*
X156847453Y-109818426D01*
X156739280Y-109557273D01*
X156582237Y-109322241D01*
X156382359Y-109122363D01*
X156149841Y-108967000D01*
X156382359Y-108811637D01*
X156582237Y-108611759D01*
X156739280Y-108376727D01*
X156847453Y-108115574D01*
X156902600Y-107838335D01*
X156902600Y-107555665D01*
X156847453Y-107278426D01*
X156739280Y-107017273D01*
X156582237Y-106782241D01*
X156382359Y-106582363D01*
X156149841Y-106427000D01*
X156382359Y-106271637D01*
X156582237Y-106071759D01*
X156739280Y-105836727D01*
X156847453Y-105575574D01*
X156902600Y-105298335D01*
X156902600Y-105015665D01*
X156847453Y-104738426D01*
X156739280Y-104477273D01*
X156582237Y-104242241D01*
X156382359Y-104042363D01*
X156147327Y-103885320D01*
X156136735Y-103880933D01*
X156322731Y-103769385D01*
X156531119Y-103580414D01*
X156698637Y-103354420D01*
X156818846Y-103100087D01*
X156859504Y-102966039D01*
X156737515Y-102744000D01*
X155594600Y-102744000D01*
X155594600Y-102764000D01*
X155340600Y-102764000D01*
X155340600Y-102744000D01*
X154197685Y-102744000D01*
X154075696Y-102966039D01*
X154116354Y-103100087D01*
X154236563Y-103354420D01*
X154404081Y-103580414D01*
X154612469Y-103769385D01*
X154798465Y-103880933D01*
X154787873Y-103885320D01*
X154552841Y-104042363D01*
X154352963Y-104242241D01*
X154195920Y-104477273D01*
X154087747Y-104738426D01*
X154032600Y-105015665D01*
X154032600Y-105298335D01*
X154087747Y-105575574D01*
X154195920Y-105836727D01*
X154352963Y-106071759D01*
X154552841Y-106271637D01*
X154785359Y-106427000D01*
X154552841Y-106582363D01*
X154352963Y-106782241D01*
X154249557Y-106937000D01*
X153888133Y-106937000D01*
X153850800Y-106933323D01*
X153813467Y-106937000D01*
X153701814Y-106947997D01*
X153558553Y-106991454D01*
X153426524Y-107062026D01*
X153310799Y-107156999D01*
X153287001Y-107185998D01*
X152511398Y-107961601D01*
X152482400Y-107985399D01*
X152476456Y-107992641D01*
X152398153Y-107914338D01*
X152300000Y-107848754D01*
X152300000Y-106752622D01*
X152303676Y-106715299D01*
X152300000Y-106677976D01*
X152300000Y-106677967D01*
X152289003Y-106566314D01*
X152245546Y-106423053D01*
X152174974Y-106291024D01*
X152151155Y-106262000D01*
X152103799Y-106204296D01*
X152103795Y-106204292D01*
X152080001Y-106175299D01*
X152051008Y-106151505D01*
X149999804Y-104100303D01*
X150153475Y-103946632D01*
X150315990Y-103703411D01*
X150427932Y-103433158D01*
X150485000Y-103146260D01*
X150485000Y-102853740D01*
X150427932Y-102566842D01*
X150315990Y-102296589D01*
X150296862Y-102267961D01*
X154075696Y-102267961D01*
X154197685Y-102490000D01*
X155340600Y-102490000D01*
X155340600Y-101346376D01*
X155594600Y-101346376D01*
X155594600Y-102490000D01*
X156737515Y-102490000D01*
X156859504Y-102267961D01*
X156818846Y-102133913D01*
X156698637Y-101879580D01*
X156531119Y-101653586D01*
X156322731Y-101464615D01*
X156081481Y-101319930D01*
X155816640Y-101225091D01*
X155594600Y-101346376D01*
X155340600Y-101346376D01*
X155118560Y-101225091D01*
X154853719Y-101319930D01*
X154612469Y-101464615D01*
X154404081Y-101653586D01*
X154236563Y-101879580D01*
X154116354Y-102133913D01*
X154075696Y-102267961D01*
X150296862Y-102267961D01*
X150153475Y-102053368D01*
X149946632Y-101846525D01*
X149703411Y-101684010D01*
X149433158Y-101572068D01*
X149146260Y-101515000D01*
X148853740Y-101515000D01*
X148566842Y-101572068D01*
X148367027Y-101654834D01*
X148364701Y-101651999D01*
X148335697Y-101628196D01*
X148021104Y-101313603D01*
X147997301Y-101284599D01*
X147881576Y-101189626D01*
X147749547Y-101119054D01*
X147606286Y-101075597D01*
X147494633Y-101064600D01*
X147494622Y-101064600D01*
X147457300Y-101060924D01*
X147419978Y-101064600D01*
X145454822Y-101064600D01*
X145417499Y-101060924D01*
X145380176Y-101064600D01*
X145380167Y-101064600D01*
X145268514Y-101075597D01*
X145125253Y-101119054D01*
X144993224Y-101189626D01*
X144877499Y-101284599D01*
X144853701Y-101313597D01*
X142362503Y-103804796D01*
X142333499Y-103828599D01*
X142286950Y-103885320D01*
X142238526Y-103944324D01*
X142186123Y-104042363D01*
X142167954Y-104076354D01*
X142124497Y-104219615D01*
X142118805Y-104277404D01*
X141577211Y-103735810D01*
X141617102Y-103661180D01*
X141653412Y-103541482D01*
X141665672Y-103417000D01*
X141665672Y-101817000D01*
X141653412Y-101692518D01*
X141617102Y-101572820D01*
X141558137Y-101462506D01*
X141478785Y-101365815D01*
X141382094Y-101286463D01*
X141271780Y-101227498D01*
X141152082Y-101191188D01*
X141027600Y-101178928D01*
X139427600Y-101178928D01*
X139303118Y-101191188D01*
X139183420Y-101227498D01*
X139073106Y-101286463D01*
X138976415Y-101365815D01*
X138897063Y-101462506D01*
X138838098Y-101572820D01*
X138801788Y-101692518D01*
X138789528Y-101817000D01*
X138789528Y-103417000D01*
X138801788Y-103541482D01*
X138838098Y-103661180D01*
X138897063Y-103771494D01*
X138976415Y-103868185D01*
X139073106Y-103947537D01*
X139183420Y-104006502D01*
X139303118Y-104042812D01*
X139311561Y-104043643D01*
X139112963Y-104242241D01*
X138955920Y-104477273D01*
X138847747Y-104738426D01*
X138792600Y-105015665D01*
X138792600Y-105298335D01*
X138847747Y-105575574D01*
X138955920Y-105836727D01*
X139112963Y-106071759D01*
X139312841Y-106271637D01*
X139545359Y-106427000D01*
X139312841Y-106582363D01*
X139112963Y-106782241D01*
X138955920Y-107017273D01*
X138847747Y-107278426D01*
X138792600Y-107555665D01*
X138792600Y-107838335D01*
X138847747Y-108115574D01*
X138955920Y-108376727D01*
X139112963Y-108611759D01*
X139312841Y-108811637D01*
X139545359Y-108967000D01*
X139381936Y-109076195D01*
X139345505Y-108988244D01*
X139232237Y-108818726D01*
X139088074Y-108674563D01*
X138918556Y-108561295D01*
X138730198Y-108483274D01*
X138530239Y-108443500D01*
X138326361Y-108443500D01*
X138126402Y-108483274D01*
X137938044Y-108561295D01*
X137768526Y-108674563D01*
X137624363Y-108818726D01*
X137511095Y-108988244D01*
X137433074Y-109176602D01*
X137393300Y-109376561D01*
X137393300Y-109438698D01*
X136835998Y-109996001D01*
X136807000Y-110019799D01*
X136783202Y-110048797D01*
X136783201Y-110048798D01*
X136712026Y-110135524D01*
X136641454Y-110267554D01*
X136597998Y-110410815D01*
X136583324Y-110559800D01*
X136587001Y-110597133D01*
X136587000Y-134332978D01*
X136583324Y-134370300D01*
X136587000Y-134407622D01*
X136587000Y-134407632D01*
X136597997Y-134519285D01*
X136636610Y-134646576D01*
X136641454Y-134662546D01*
X136712026Y-134794576D01*
X136746506Y-134836589D01*
X136806999Y-134910301D01*
X136836003Y-134934104D01*
X140086001Y-138184103D01*
X140109799Y-138213101D01*
X140138797Y-138236899D01*
X140225524Y-138308074D01*
X140285252Y-138340000D01*
X136160000Y-138340000D01*
X136160000Y-99660000D01*
X159340001Y-99660000D01*
X159340000Y-120762533D01*
G37*
G04 #@! TD.AperFunction*
D19*
X138202335Y-125392987D02*
X138447328Y-125494467D01*
X138707411Y-125546200D01*
X138792600Y-125546200D01*
X138792600Y-125618335D01*
X138847747Y-125895574D01*
X138955920Y-126156727D01*
X139112963Y-126391759D01*
X139312841Y-126591637D01*
X139545359Y-126747000D01*
X139312841Y-126902363D01*
X139112963Y-127102241D01*
X138955920Y-127337273D01*
X138847747Y-127598426D01*
X138792600Y-127875665D01*
X138792600Y-128158335D01*
X138847747Y-128435574D01*
X138955920Y-128696727D01*
X139112963Y-128931759D01*
X139312841Y-129131637D01*
X139545359Y-129287000D01*
X139312841Y-129442363D01*
X139112963Y-129642241D01*
X138955920Y-129877273D01*
X138847747Y-130138426D01*
X138792600Y-130415665D01*
X138792600Y-130698335D01*
X138847747Y-130975574D01*
X138955920Y-131236727D01*
X139112963Y-131471759D01*
X139312841Y-131671637D01*
X139545359Y-131827000D01*
X139312841Y-131982363D01*
X139112963Y-132182241D01*
X138955920Y-132417273D01*
X138847747Y-132678426D01*
X138792600Y-132955665D01*
X138792600Y-133238335D01*
X138847747Y-133515574D01*
X138955920Y-133776727D01*
X139112963Y-134011759D01*
X139312841Y-134211637D01*
X139473442Y-134318947D01*
X139478597Y-134371286D01*
X139488767Y-134404813D01*
X139312841Y-134522363D01*
X139112963Y-134722241D01*
X138977090Y-134925589D01*
X138107000Y-134055499D01*
X138107000Y-125329286D01*
X138202335Y-125392987D01*
G04 #@! TA.AperFunction,Conductor*
D20*
G36*
X138202335Y-125392987D02*
G01*
X138447328Y-125494467D01*
X138707411Y-125546200D01*
X138792600Y-125546200D01*
X138792600Y-125618335D01*
X138847747Y-125895574D01*
X138955920Y-126156727D01*
X139112963Y-126391759D01*
X139312841Y-126591637D01*
X139545359Y-126747000D01*
X139312841Y-126902363D01*
X139112963Y-127102241D01*
X138955920Y-127337273D01*
X138847747Y-127598426D01*
X138792600Y-127875665D01*
X138792600Y-128158335D01*
X138847747Y-128435574D01*
X138955920Y-128696727D01*
X139112963Y-128931759D01*
X139312841Y-129131637D01*
X139545359Y-129287000D01*
X139312841Y-129442363D01*
X139112963Y-129642241D01*
X138955920Y-129877273D01*
X138847747Y-130138426D01*
X138792600Y-130415665D01*
X138792600Y-130698335D01*
X138847747Y-130975574D01*
X138955920Y-131236727D01*
X139112963Y-131471759D01*
X139312841Y-131671637D01*
X139545359Y-131827000D01*
X139312841Y-131982363D01*
X139112963Y-132182241D01*
X138955920Y-132417273D01*
X138847747Y-132678426D01*
X138792600Y-132955665D01*
X138792600Y-133238335D01*
X138847747Y-133515574D01*
X138955920Y-133776727D01*
X139112963Y-134011759D01*
X139312841Y-134211637D01*
X139473442Y-134318947D01*
X139478597Y-134371286D01*
X139488767Y-134404813D01*
X139312841Y-134522363D01*
X139112963Y-134722241D01*
X138977090Y-134925589D01*
X138107000Y-134055499D01*
X138107000Y-125329286D01*
X138202335Y-125392987D01*
G37*
G04 #@! TD.AperFunction*
D19*
X145443748Y-132985858D02*
X145429605Y-133000000D01*
X145443748Y-133014143D01*
X145264143Y-133193748D01*
X145250000Y-133179605D01*
X144401208Y-134028397D01*
X144476729Y-134270689D01*
X144303368Y-134386525D01*
X144116285Y-134573608D01*
X144048405Y-134446614D01*
X143937962Y-134312038D01*
X143803386Y-134201595D01*
X143676392Y-134133715D01*
X143863475Y-133946632D01*
X143979311Y-133773271D01*
X144221603Y-133848792D01*
X145070395Y-133000000D01*
X145056253Y-132985858D01*
X145235858Y-132806253D01*
X145250000Y-132820395D01*
X145264143Y-132806253D01*
X145443748Y-132985858D01*
G04 #@! TA.AperFunction,Conductor*
D20*
G36*
X145443748Y-132985858D02*
G01*
X145429605Y-133000000D01*
X145443748Y-133014143D01*
X145264143Y-133193748D01*
X145250000Y-133179605D01*
X144401208Y-134028397D01*
X144476729Y-134270689D01*
X144303368Y-134386525D01*
X144116285Y-134573608D01*
X144048405Y-134446614D01*
X143937962Y-134312038D01*
X143803386Y-134201595D01*
X143676392Y-134133715D01*
X143863475Y-133946632D01*
X143979311Y-133773271D01*
X144221603Y-133848792D01*
X145070395Y-133000000D01*
X145056253Y-132985858D01*
X145235858Y-132806253D01*
X145250000Y-132820395D01*
X145264143Y-132806253D01*
X145443748Y-132985858D01*
G37*
G04 #@! TD.AperFunction*
D19*
X146653748Y-124185858D02*
X146639605Y-124200000D01*
X146653748Y-124214143D01*
X146474143Y-124393748D01*
X146460000Y-124379605D01*
X146445858Y-124393748D01*
X146266253Y-124214143D01*
X146280395Y-124200000D01*
X146266253Y-124185858D01*
X146445858Y-124006253D01*
X146460000Y-124020395D01*
X146474143Y-124006253D01*
X146653748Y-124185858D01*
G04 #@! TA.AperFunction,Conductor*
D20*
G36*
X146653748Y-124185858D02*
G01*
X146639605Y-124200000D01*
X146653748Y-124214143D01*
X146474143Y-124393748D01*
X146460000Y-124379605D01*
X146445858Y-124393748D01*
X146266253Y-124214143D01*
X146280395Y-124200000D01*
X146266253Y-124185858D01*
X146445858Y-124006253D01*
X146460000Y-124020395D01*
X146474143Y-124006253D01*
X146653748Y-124185858D01*
G37*
G04 #@! TD.AperFunction*
D19*
X147807013Y-109597665D02*
X147954338Y-109818153D01*
X148141847Y-110005662D01*
X148358954Y-110150728D01*
X148288800Y-110150728D01*
X148164318Y-110162988D01*
X148044620Y-110199298D01*
X147934306Y-110258263D01*
X147837615Y-110337615D01*
X147758263Y-110434306D01*
X147699298Y-110544620D01*
X147662988Y-110664318D01*
X147650728Y-110788800D01*
X147650728Y-110860814D01*
X147624183Y-110811152D01*
X147389273Y-110750332D01*
X146639605Y-111500000D01*
X147389273Y-112249668D01*
X147624183Y-112188848D01*
X147650728Y-112131891D01*
X147650728Y-112211200D01*
X147662988Y-112335682D01*
X147699298Y-112455380D01*
X147758263Y-112565694D01*
X147837615Y-112662385D01*
X147934306Y-112741737D01*
X148044620Y-112800702D01*
X148164318Y-112837012D01*
X148288800Y-112849272D01*
X149276600Y-112849272D01*
X149276601Y-118924288D01*
X149232663Y-118968226D01*
X149119395Y-119137744D01*
X149041374Y-119326102D01*
X149001600Y-119526061D01*
X149001600Y-119729939D01*
X149041374Y-119929898D01*
X149119395Y-120118256D01*
X149232663Y-120287774D01*
X149376826Y-120431937D01*
X149512638Y-120522683D01*
X149510000Y-120549468D01*
X149510000Y-120549478D01*
X149506324Y-120586800D01*
X149510000Y-120624122D01*
X149510000Y-122954132D01*
X149392672Y-122905533D01*
X149132589Y-122853800D01*
X148867411Y-122853800D01*
X148607328Y-122905533D01*
X148594268Y-122910943D01*
X148585637Y-122898026D01*
X148441474Y-122753863D01*
X148271956Y-122640595D01*
X148083598Y-122562574D01*
X147883639Y-122522800D01*
X147679761Y-122522800D01*
X147479802Y-122562574D01*
X147291444Y-122640595D01*
X147121926Y-122753863D01*
X146977763Y-122898026D01*
X146948183Y-122942296D01*
X146908491Y-122923798D01*
X146650898Y-122860824D01*
X146385970Y-122849313D01*
X146175300Y-122881784D01*
X146175300Y-118112622D01*
X146178976Y-118075300D01*
X146175300Y-118037977D01*
X146175300Y-118037967D01*
X146164303Y-117926314D01*
X146120846Y-117783053D01*
X146080737Y-117708015D01*
X146050274Y-117651023D01*
X145979099Y-117564297D01*
X145955301Y-117535299D01*
X145926304Y-117511502D01*
X142703170Y-114288369D01*
X142726200Y-114172589D01*
X142726200Y-113907411D01*
X142703170Y-113791631D01*
X143384503Y-113110299D01*
X143413501Y-113086501D01*
X143439832Y-113054417D01*
X143508474Y-112970777D01*
X143579046Y-112838747D01*
X143587678Y-112810291D01*
X143588771Y-112806689D01*
X143787411Y-112846200D01*
X144052589Y-112846200D01*
X144312672Y-112794467D01*
X144557665Y-112692987D01*
X144778153Y-112545662D01*
X144894542Y-112429273D01*
X145710332Y-112429273D01*
X145771152Y-112664183D01*
X146011509Y-112776202D01*
X146269102Y-112839176D01*
X146534030Y-112850687D01*
X146796113Y-112810291D01*
X147045280Y-112719542D01*
X147148848Y-112664183D01*
X147209668Y-112429273D01*
X146460000Y-111679605D01*
X145710332Y-112429273D01*
X144894542Y-112429273D01*
X144965662Y-112358153D01*
X145112987Y-112137665D01*
X145190969Y-111949400D01*
X145240458Y-112085280D01*
X145295817Y-112188848D01*
X145530727Y-112249668D01*
X146280395Y-111500000D01*
X145530727Y-110750332D01*
X145295817Y-110811152D01*
X145187794Y-111042934D01*
X145112987Y-110862335D01*
X144965662Y-110641847D01*
X144778153Y-110454338D01*
X144557665Y-110307013D01*
X144371740Y-110230000D01*
X144557665Y-110152987D01*
X144778153Y-110005662D01*
X144965662Y-109818153D01*
X145112987Y-109597665D01*
X145190000Y-109411740D01*
X145267013Y-109597665D01*
X145414338Y-109818153D01*
X145601847Y-110005662D01*
X145822335Y-110152987D01*
X146010600Y-110230969D01*
X145874720Y-110280458D01*
X145771152Y-110335817D01*
X145710332Y-110570727D01*
X146460000Y-111320395D01*
X147209668Y-110570727D01*
X147148848Y-110335817D01*
X146917066Y-110227794D01*
X147097665Y-110152987D01*
X147318153Y-110005662D01*
X147505662Y-109818153D01*
X147652987Y-109597665D01*
X147730000Y-109411740D01*
X147807013Y-109597665D01*
G04 #@! TA.AperFunction,Conductor*
D20*
G36*
X147807013Y-109597665D02*
G01*
X147954338Y-109818153D01*
X148141847Y-110005662D01*
X148358954Y-110150728D01*
X148288800Y-110150728D01*
X148164318Y-110162988D01*
X148044620Y-110199298D01*
X147934306Y-110258263D01*
X147837615Y-110337615D01*
X147758263Y-110434306D01*
X147699298Y-110544620D01*
X147662988Y-110664318D01*
X147650728Y-110788800D01*
X147650728Y-110860814D01*
X147624183Y-110811152D01*
X147389273Y-110750332D01*
X146639605Y-111500000D01*
X147389273Y-112249668D01*
X147624183Y-112188848D01*
X147650728Y-112131891D01*
X147650728Y-112211200D01*
X147662988Y-112335682D01*
X147699298Y-112455380D01*
X147758263Y-112565694D01*
X147837615Y-112662385D01*
X147934306Y-112741737D01*
X148044620Y-112800702D01*
X148164318Y-112837012D01*
X148288800Y-112849272D01*
X149276600Y-112849272D01*
X149276601Y-118924288D01*
X149232663Y-118968226D01*
X149119395Y-119137744D01*
X149041374Y-119326102D01*
X149001600Y-119526061D01*
X149001600Y-119729939D01*
X149041374Y-119929898D01*
X149119395Y-120118256D01*
X149232663Y-120287774D01*
X149376826Y-120431937D01*
X149512638Y-120522683D01*
X149510000Y-120549468D01*
X149510000Y-120549478D01*
X149506324Y-120586800D01*
X149510000Y-120624122D01*
X149510000Y-122954132D01*
X149392672Y-122905533D01*
X149132589Y-122853800D01*
X148867411Y-122853800D01*
X148607328Y-122905533D01*
X148594268Y-122910943D01*
X148585637Y-122898026D01*
X148441474Y-122753863D01*
X148271956Y-122640595D01*
X148083598Y-122562574D01*
X147883639Y-122522800D01*
X147679761Y-122522800D01*
X147479802Y-122562574D01*
X147291444Y-122640595D01*
X147121926Y-122753863D01*
X146977763Y-122898026D01*
X146948183Y-122942296D01*
X146908491Y-122923798D01*
X146650898Y-122860824D01*
X146385970Y-122849313D01*
X146175300Y-122881784D01*
X146175300Y-118112622D01*
X146178976Y-118075300D01*
X146175300Y-118037977D01*
X146175300Y-118037967D01*
X146164303Y-117926314D01*
X146120846Y-117783053D01*
X146080737Y-117708015D01*
X146050274Y-117651023D01*
X145979099Y-117564297D01*
X145955301Y-117535299D01*
X145926304Y-117511502D01*
X142703170Y-114288369D01*
X142726200Y-114172589D01*
X142726200Y-113907411D01*
X142703170Y-113791631D01*
X143384503Y-113110299D01*
X143413501Y-113086501D01*
X143439832Y-113054417D01*
X143508474Y-112970777D01*
X143579046Y-112838747D01*
X143587678Y-112810291D01*
X143588771Y-112806689D01*
X143787411Y-112846200D01*
X144052589Y-112846200D01*
X144312672Y-112794467D01*
X144557665Y-112692987D01*
X144778153Y-112545662D01*
X144894542Y-112429273D01*
X145710332Y-112429273D01*
X145771152Y-112664183D01*
X146011509Y-112776202D01*
X146269102Y-112839176D01*
X146534030Y-112850687D01*
X146796113Y-112810291D01*
X147045280Y-112719542D01*
X147148848Y-112664183D01*
X147209668Y-112429273D01*
X146460000Y-111679605D01*
X145710332Y-112429273D01*
X144894542Y-112429273D01*
X144965662Y-112358153D01*
X145112987Y-112137665D01*
X145190969Y-111949400D01*
X145240458Y-112085280D01*
X145295817Y-112188848D01*
X145530727Y-112249668D01*
X146280395Y-111500000D01*
X145530727Y-110750332D01*
X145295817Y-110811152D01*
X145187794Y-111042934D01*
X145112987Y-110862335D01*
X144965662Y-110641847D01*
X144778153Y-110454338D01*
X144557665Y-110307013D01*
X144371740Y-110230000D01*
X144557665Y-110152987D01*
X144778153Y-110005662D01*
X144965662Y-109818153D01*
X145112987Y-109597665D01*
X145190000Y-109411740D01*
X145267013Y-109597665D01*
X145414338Y-109818153D01*
X145601847Y-110005662D01*
X145822335Y-110152987D01*
X146010600Y-110230969D01*
X145874720Y-110280458D01*
X145771152Y-110335817D01*
X145710332Y-110570727D01*
X146460000Y-111320395D01*
X147209668Y-110570727D01*
X147148848Y-110335817D01*
X146917066Y-110227794D01*
X147097665Y-110152987D01*
X147318153Y-110005662D01*
X147505662Y-109818153D01*
X147652987Y-109597665D01*
X147730000Y-109411740D01*
X147807013Y-109597665D01*
G37*
G04 #@! TD.AperFunction*
D19*
X139033748Y-121645858D02*
X139019605Y-121660000D01*
X139033748Y-121674143D01*
X138854143Y-121853748D01*
X138840000Y-121839605D01*
X138825858Y-121853748D01*
X138646253Y-121674143D01*
X138660395Y-121660000D01*
X138646253Y-121645858D01*
X138825858Y-121466253D01*
X138840000Y-121480395D01*
X138854143Y-121466253D01*
X139033748Y-121645858D01*
G04 #@! TA.AperFunction,Conductor*
D20*
G36*
X139033748Y-121645858D02*
G01*
X139019605Y-121660000D01*
X139033748Y-121674143D01*
X138854143Y-121853748D01*
X138840000Y-121839605D01*
X138825858Y-121853748D01*
X138646253Y-121674143D01*
X138660395Y-121660000D01*
X138646253Y-121645858D01*
X138825858Y-121466253D01*
X138840000Y-121480395D01*
X138854143Y-121466253D01*
X139033748Y-121645858D01*
G37*
G04 #@! TD.AperFunction*
D19*
X146587000Y-102873000D02*
X146607000Y-102873000D01*
X146607000Y-103127000D01*
X146587000Y-103127000D01*
X146587000Y-104326250D01*
X146745750Y-104485000D01*
X147310000Y-104488072D01*
X147434482Y-104475812D01*
X147554180Y-104439502D01*
X147664494Y-104380537D01*
X147761185Y-104301185D01*
X147840537Y-104204494D01*
X147899502Y-104094180D01*
X147921513Y-104021620D01*
X148053368Y-104153475D01*
X148246912Y-104282797D01*
X148250998Y-104324285D01*
X148294454Y-104467546D01*
X148365026Y-104599576D01*
X148415310Y-104660846D01*
X148460000Y-104715301D01*
X148488998Y-104739099D01*
X150489097Y-106739200D01*
X150385161Y-106739200D01*
X150185202Y-106778974D01*
X149996844Y-106856995D01*
X149827326Y-106970263D01*
X149683163Y-107114426D01*
X149569895Y-107283944D01*
X149491874Y-107472302D01*
X149452100Y-107672261D01*
X149452100Y-107690149D01*
X149392672Y-107665533D01*
X149132589Y-107613800D01*
X148867411Y-107613800D01*
X148607328Y-107665533D01*
X148362335Y-107767013D01*
X148141847Y-107914338D01*
X147954338Y-108101847D01*
X147807013Y-108322335D01*
X147730000Y-108508260D01*
X147652987Y-108322335D01*
X147505662Y-108101847D01*
X147318153Y-107914338D01*
X147097665Y-107767013D01*
X146852672Y-107665533D01*
X146592589Y-107613800D01*
X146327411Y-107613800D01*
X146067328Y-107665533D01*
X145822335Y-107767013D01*
X145601847Y-107914338D01*
X145414338Y-108101847D01*
X145267013Y-108322335D01*
X145190000Y-108508260D01*
X145112987Y-108322335D01*
X144965662Y-108101847D01*
X144778153Y-107914338D01*
X144557665Y-107767013D01*
X144312672Y-107665533D01*
X144052589Y-107613800D01*
X143787411Y-107613800D01*
X143633500Y-107644414D01*
X143633500Y-104683401D01*
X144974693Y-103342209D01*
X144971928Y-103850000D01*
X144984188Y-103974482D01*
X145020498Y-104094180D01*
X145079463Y-104204494D01*
X145158815Y-104301185D01*
X145255506Y-104380537D01*
X145365820Y-104439502D01*
X145485518Y-104475812D01*
X145610000Y-104488072D01*
X146174250Y-104485000D01*
X146333000Y-104326250D01*
X146333000Y-103127000D01*
X146313000Y-103127000D01*
X146313000Y-102873000D01*
X146333000Y-102873000D01*
X146333000Y-102853000D01*
X146587000Y-102853000D01*
X146587000Y-102873000D01*
G04 #@! TA.AperFunction,Conductor*
D20*
G36*
X146587000Y-102873000D02*
G01*
X146607000Y-102873000D01*
X146607000Y-103127000D01*
X146587000Y-103127000D01*
X146587000Y-104326250D01*
X146745750Y-104485000D01*
X147310000Y-104488072D01*
X147434482Y-104475812D01*
X147554180Y-104439502D01*
X147664494Y-104380537D01*
X147761185Y-104301185D01*
X147840537Y-104204494D01*
X147899502Y-104094180D01*
X147921513Y-104021620D01*
X148053368Y-104153475D01*
X148246912Y-104282797D01*
X148250998Y-104324285D01*
X148294454Y-104467546D01*
X148365026Y-104599576D01*
X148415310Y-104660846D01*
X148460000Y-104715301D01*
X148488998Y-104739099D01*
X150489097Y-106739200D01*
X150385161Y-106739200D01*
X150185202Y-106778974D01*
X149996844Y-106856995D01*
X149827326Y-106970263D01*
X149683163Y-107114426D01*
X149569895Y-107283944D01*
X149491874Y-107472302D01*
X149452100Y-107672261D01*
X149452100Y-107690149D01*
X149392672Y-107665533D01*
X149132589Y-107613800D01*
X148867411Y-107613800D01*
X148607328Y-107665533D01*
X148362335Y-107767013D01*
X148141847Y-107914338D01*
X147954338Y-108101847D01*
X147807013Y-108322335D01*
X147730000Y-108508260D01*
X147652987Y-108322335D01*
X147505662Y-108101847D01*
X147318153Y-107914338D01*
X147097665Y-107767013D01*
X146852672Y-107665533D01*
X146592589Y-107613800D01*
X146327411Y-107613800D01*
X146067328Y-107665533D01*
X145822335Y-107767013D01*
X145601847Y-107914338D01*
X145414338Y-108101847D01*
X145267013Y-108322335D01*
X145190000Y-108508260D01*
X145112987Y-108322335D01*
X144965662Y-108101847D01*
X144778153Y-107914338D01*
X144557665Y-107767013D01*
X144312672Y-107665533D01*
X144052589Y-107613800D01*
X143787411Y-107613800D01*
X143633500Y-107644414D01*
X143633500Y-104683401D01*
X144974693Y-103342209D01*
X144971928Y-103850000D01*
X144984188Y-103974482D01*
X145020498Y-104094180D01*
X145079463Y-104204494D01*
X145158815Y-104301185D01*
X145255506Y-104380537D01*
X145365820Y-104439502D01*
X145485518Y-104475812D01*
X145610000Y-104488072D01*
X146174250Y-104485000D01*
X146333000Y-104326250D01*
X146333000Y-103127000D01*
X146313000Y-103127000D01*
X146313000Y-102873000D01*
X146333000Y-102873000D01*
X146333000Y-102853000D01*
X146587000Y-102853000D01*
X146587000Y-102873000D01*
G37*
G04 #@! TD.AperFunction*
M02*
