M48
INCH,TZ
T1C0.0157
T2C0.0315
T3C0.0394
%
G90
G05
T1
X54499Y-49812
X54499Y-43102
X56161Y-47142
X58182Y-48645
X59070Y-47098
X59247Y-42431
X59450Y-46700
X59958Y-48379
X62051Y-49528
T2
X54661Y-43898
X54661Y-44898
X54661Y-45898
X54661Y-46898
X54661Y-47898
X54661Y-48898
X55208Y-40400
X55208Y-41400
X55208Y-42400
X55208Y-43400
X55208Y-44400
X55208Y-45400
X55208Y-46400
X55208Y-47400
X55208Y-48400
X55208Y-49400
X55208Y-50400
X55208Y-51400
X55208Y-52400
X55208Y-53400
X55661Y-42898
X55661Y-43898
X55661Y-44898
X55661Y-45898
X55661Y-46898
X55661Y-47898
X55661Y-48898
X55661Y-49898
X56661Y-42898
X56661Y-43898
X56661Y-48898
X56661Y-49898
X57661Y-42898
X57661Y-43898
X57661Y-48898
X57661Y-49898
X58661Y-42898
X58661Y-43898
X58661Y-48898
X58661Y-49898
X59661Y-42898
X59661Y-43898
X59661Y-48898
X59661Y-49898
X60661Y-42898
X60661Y-43898
X60661Y-44898
X60661Y-45898
X60661Y-46898
X60661Y-47898
X60661Y-48898
X60661Y-49898
X61208Y-40400
X61208Y-41400
X61208Y-42400
X61208Y-43400
X61208Y-44400
X61208Y-45400
X61208Y-46400
X61208Y-47400
X61208Y-48400
X61208Y-49400
X61208Y-50400
X61208Y-51400
X61208Y-52400
X61208Y-53400
X61661Y-43898
X61661Y-44898
X61661Y-45898
X61661Y-46898
X61661Y-47898
X61661Y-48898
T3
X56185Y-52362
X56185Y-53362
X57185Y-52362
X57185Y-53362
X57661Y-40551
X58185Y-52362
X58185Y-53362
X58661Y-40551
X59185Y-52362
X59185Y-53362
X60185Y-52362
X60185Y-53362
T0
M30
