G04 #@! TF.GenerationSoftware,KiCad,Pcbnew,(5.1.10)-1*
G04 #@! TF.CreationDate,2021-09-02T14:01:04+02:00*
G04 #@! TF.ProjectId,ezPLA,657a504c-412e-46b6-9963-61645f706362,rev?*
G04 #@! TF.SameCoordinates,Original*
G04 #@! TF.FileFunction,Soldermask,Top*
G04 #@! TF.FilePolarity,Negative*
%FSLAX46Y46*%
G04 Gerber Fmt 4.6, Leading zero omitted, Abs format (unit mm)*
G04 Created by KiCad (PCBNEW (5.1.10)-1) date 2021-09-02 14:01:04*
%MOMM*%
%LPD*%
G01*
G04 APERTURE LIST*
%ADD10C,1.700000*%
%ADD11O,1.600000X1.600000*%
%ADD12R,1.600000X1.600000*%
%ADD13O,1.700000X1.700000*%
%ADD14R,1.700000X1.700000*%
%ADD15C,1.422400*%
%ADD16R,1.422400X1.422400*%
G04 APERTURE END LIST*
G36*
G01*
X143310000Y-136390000D02*
X142110000Y-136390000D01*
G75*
G02*
X141860000Y-136140000I0J250000D01*
G01*
X141860000Y-134940000D01*
G75*
G02*
X142110000Y-134690000I250000J0D01*
G01*
X143310000Y-134690000D01*
G75*
G02*
X143560000Y-134940000I0J-250000D01*
G01*
X143560000Y-136140000D01*
G75*
G02*
X143310000Y-136390000I-250000J0D01*
G01*
G37*
D10*
X145250000Y-135540000D03*
X147790000Y-135540000D03*
X150330000Y-135540000D03*
X152870000Y-135540000D03*
X142710000Y-133000000D03*
X145250000Y-133000000D03*
X147790000Y-133000000D03*
X150330000Y-133000000D03*
X152870000Y-133000000D03*
D11*
X155467600Y-102617000D03*
X140227600Y-135637000D03*
X155467600Y-105157000D03*
X140227600Y-133097000D03*
X155467600Y-107697000D03*
X140227600Y-130557000D03*
X155467600Y-110237000D03*
X140227600Y-128017000D03*
X155467600Y-112777000D03*
X140227600Y-125477000D03*
X155467600Y-115317000D03*
X140227600Y-122937000D03*
X155467600Y-117857000D03*
X140227600Y-120397000D03*
X155467600Y-120397000D03*
X140227600Y-117857000D03*
X155467600Y-122937000D03*
X140227600Y-115317000D03*
X155467600Y-125477000D03*
X140227600Y-112777000D03*
X155467600Y-128017000D03*
X140227600Y-110237000D03*
X155467600Y-130557000D03*
X140227600Y-107697000D03*
X155467600Y-133097000D03*
X140227600Y-105157000D03*
X155467600Y-135637000D03*
D12*
X140227600Y-102617000D03*
D13*
X149000000Y-103000000D03*
D14*
X146460000Y-103000000D03*
D15*
X156620000Y-111500000D03*
X156620000Y-114040000D03*
X156620000Y-116580000D03*
X156620000Y-119120000D03*
X156620000Y-121660000D03*
X154080000Y-108960000D03*
X154080000Y-114040000D03*
X154080000Y-116580000D03*
X154080000Y-119120000D03*
X154080000Y-121660000D03*
X154080000Y-124200000D03*
X154080000Y-126740000D03*
X151540000Y-126740000D03*
X149000000Y-126740000D03*
X146460000Y-126740000D03*
X143920000Y-126740000D03*
X141380000Y-126740000D03*
X156620000Y-124200000D03*
X151540000Y-124200000D03*
X149000000Y-124200000D03*
X146460000Y-124200000D03*
X143920000Y-124200000D03*
X141380000Y-124200000D03*
X138840000Y-124200000D03*
X138840000Y-121660000D03*
X138840000Y-119120000D03*
X138840000Y-116580000D03*
X138840000Y-114040000D03*
X138840000Y-111500000D03*
X141380000Y-121660000D03*
X141380000Y-119120000D03*
X141380000Y-116580000D03*
X141380000Y-114040000D03*
X141380000Y-111500000D03*
X151540000Y-108960000D03*
X149000000Y-108960000D03*
X141380000Y-108960000D03*
X143920000Y-108960000D03*
X146460000Y-108960000D03*
X154080000Y-111500000D03*
X151540000Y-111500000D03*
X143920000Y-111500000D03*
X146460000Y-111500000D03*
D16*
X149000000Y-111500000D03*
M02*
