G04 #@! TF.GenerationSoftware,KiCad,Pcbnew,(5.1.10)-1*
G04 #@! TF.CreationDate,2021-09-02T14:01:04+02:00*
G04 #@! TF.ProjectId,ezPLA,657a504c-412e-46b6-9963-61645f706362,rev?*
G04 #@! TF.SameCoordinates,Original*
G04 #@! TF.FileFunction,Legend,Bot*
G04 #@! TF.FilePolarity,Positive*
%FSLAX46Y46*%
G04 Gerber Fmt 4.6, Leading zero omitted, Abs format (unit mm)*
G04 Created by KiCad (PCBNEW (5.1.10)-1) date 2021-09-02 14:01:04*
%MOMM*%
%LPD*%
G01*
G04 APERTURE LIST*
%ADD10C,0.150000*%
%ADD11C,0.120000*%
G04 APERTURE END LIST*
D10*
X138353854Y-102611904D02*
X138810997Y-102611904D01*
X138582425Y-102611904D02*
X138482425Y-101811904D01*
X138572901Y-101926190D01*
X138658616Y-102002380D01*
X138739568Y-102040476D01*
X158964285Y-100904761D02*
X159059523Y-100952380D01*
X159250000Y-100952380D01*
X159345238Y-100904761D01*
X159392857Y-100809523D01*
X159392857Y-100428571D01*
X159345238Y-100333333D01*
X159250000Y-100285714D01*
X159059523Y-100285714D01*
X158964285Y-100333333D01*
X158916666Y-100428571D01*
X158916666Y-100523809D01*
X159392857Y-100619047D01*
X158583333Y-100285714D02*
X158059523Y-100285714D01*
X158583333Y-100952380D01*
X158059523Y-100952380D01*
X157107142Y-100857142D02*
X157154761Y-100904761D01*
X157297619Y-100952380D01*
X157392857Y-100952380D01*
X157535714Y-100904761D01*
X157630952Y-100809523D01*
X157678571Y-100714285D01*
X157726190Y-100523809D01*
X157726190Y-100380952D01*
X157678571Y-100190476D01*
X157630952Y-100095238D01*
X157535714Y-100000000D01*
X157392857Y-99952380D01*
X157297619Y-99952380D01*
X157154761Y-100000000D01*
X157107142Y-100047619D01*
X156535714Y-100952380D02*
X156630952Y-100904761D01*
X156678571Y-100857142D01*
X156726190Y-100761904D01*
X156726190Y-100476190D01*
X156678571Y-100380952D01*
X156630952Y-100333333D01*
X156535714Y-100285714D01*
X156392857Y-100285714D01*
X156297619Y-100333333D01*
X156250000Y-100380952D01*
X156202380Y-100476190D01*
X156202380Y-100761904D01*
X156250000Y-100857142D01*
X156297619Y-100904761D01*
X156392857Y-100952380D01*
X156535714Y-100952380D01*
X155773809Y-100285714D02*
X155773809Y-100952380D01*
X155773809Y-100380952D02*
X155726190Y-100333333D01*
X155630952Y-100285714D01*
X155488095Y-100285714D01*
X155392857Y-100333333D01*
X155345238Y-100428571D01*
X155345238Y-100952380D01*
X155011904Y-100285714D02*
X154630952Y-100285714D01*
X154869047Y-99952380D02*
X154869047Y-100809523D01*
X154821428Y-100904761D01*
X154726190Y-100952380D01*
X154630952Y-100952380D01*
X153916666Y-100904761D02*
X154011904Y-100952380D01*
X154202380Y-100952380D01*
X154297619Y-100904761D01*
X154345238Y-100809523D01*
X154345238Y-100428571D01*
X154297619Y-100333333D01*
X154202380Y-100285714D01*
X154011904Y-100285714D01*
X153916666Y-100333333D01*
X153869047Y-100428571D01*
X153869047Y-100523809D01*
X154345238Y-100619047D01*
X153440476Y-100285714D02*
X153440476Y-100952380D01*
X153440476Y-100380952D02*
X153392857Y-100333333D01*
X153297619Y-100285714D01*
X153154761Y-100285714D01*
X153059523Y-100333333D01*
X153011904Y-100428571D01*
X153011904Y-100952380D01*
X152678571Y-100285714D02*
X152297619Y-100285714D01*
X152535714Y-99952380D02*
X152535714Y-100809523D01*
X152488095Y-100904761D01*
X152392857Y-100952380D01*
X152297619Y-100952380D01*
X152011904Y-100904761D02*
X151916666Y-100952380D01*
X151726190Y-100952380D01*
X151630952Y-100904761D01*
X151583333Y-100809523D01*
X151583333Y-100761904D01*
X151630952Y-100666666D01*
X151726190Y-100619047D01*
X151869047Y-100619047D01*
X151964285Y-100571428D01*
X152011904Y-100476190D01*
X152011904Y-100428571D01*
X151964285Y-100333333D01*
X151869047Y-100285714D01*
X151726190Y-100285714D01*
X151630952Y-100333333D01*
X150392857Y-100571428D02*
X149630952Y-100571428D01*
X147821428Y-100857142D02*
X147869047Y-100904761D01*
X148011904Y-100952380D01*
X148107142Y-100952380D01*
X148250000Y-100904761D01*
X148345238Y-100809523D01*
X148392857Y-100714285D01*
X148440476Y-100523809D01*
X148440476Y-100380952D01*
X148392857Y-100190476D01*
X148345238Y-100095238D01*
X148250000Y-100000000D01*
X148107142Y-99952380D01*
X148011904Y-99952380D01*
X147869047Y-100000000D01*
X147821428Y-100047619D01*
X146821428Y-100857142D02*
X146869047Y-100904761D01*
X147011904Y-100952380D01*
X147107142Y-100952380D01*
X147250000Y-100904761D01*
X147345238Y-100809523D01*
X147392857Y-100714285D01*
X147440476Y-100523809D01*
X147440476Y-100380952D01*
X147392857Y-100190476D01*
X147345238Y-100095238D01*
X147250000Y-100000000D01*
X147107142Y-99952380D01*
X147011904Y-99952380D01*
X146869047Y-100000000D01*
X146821428Y-100047619D01*
X146392857Y-100571428D02*
X145630952Y-100571428D01*
X144821428Y-100428571D02*
X144678571Y-100476190D01*
X144630952Y-100523809D01*
X144583333Y-100619047D01*
X144583333Y-100761904D01*
X144630952Y-100857142D01*
X144678571Y-100904761D01*
X144773809Y-100952380D01*
X145154761Y-100952380D01*
X145154761Y-99952380D01*
X144821428Y-99952380D01*
X144726190Y-100000000D01*
X144678571Y-100047619D01*
X144630952Y-100142857D01*
X144630952Y-100238095D01*
X144678571Y-100333333D01*
X144726190Y-100380952D01*
X144821428Y-100428571D01*
X145154761Y-100428571D01*
X143964285Y-100476190D02*
X143964285Y-100952380D01*
X144297619Y-99952380D02*
X143964285Y-100476190D01*
X143630952Y-99952380D01*
X143297619Y-100571428D02*
X142535714Y-100571428D01*
X142107142Y-100904761D02*
X141964285Y-100952380D01*
X141726190Y-100952380D01*
X141630952Y-100904761D01*
X141583333Y-100857142D01*
X141535714Y-100761904D01*
X141535714Y-100666666D01*
X141583333Y-100571428D01*
X141630952Y-100523809D01*
X141726190Y-100476190D01*
X141916666Y-100428571D01*
X142011904Y-100380952D01*
X142059523Y-100333333D01*
X142107142Y-100238095D01*
X142107142Y-100142857D01*
X142059523Y-100047619D01*
X142011904Y-100000000D01*
X141916666Y-99952380D01*
X141678571Y-99952380D01*
X141535714Y-100000000D01*
X141154761Y-100666666D02*
X140678571Y-100666666D01*
X141250000Y-100952380D02*
X140916666Y-99952380D01*
X140583333Y-100952380D01*
X139535714Y-100047619D02*
X139488095Y-100000000D01*
X139392857Y-99952380D01*
X139154761Y-99952380D01*
X139059523Y-100000000D01*
X139011904Y-100047619D01*
X138964285Y-100142857D01*
X138964285Y-100238095D01*
X139011904Y-100380952D01*
X139583333Y-100952380D01*
X138964285Y-100952380D01*
X138345238Y-99952380D02*
X138250000Y-99952380D01*
X138154761Y-100000000D01*
X138107142Y-100047619D01*
X138059523Y-100142857D01*
X138011904Y-100333333D01*
X138011904Y-100571428D01*
X138059523Y-100761904D01*
X138107142Y-100857142D01*
X138154761Y-100904761D01*
X138250000Y-100952380D01*
X138345238Y-100952380D01*
X138440476Y-100904761D01*
X138488095Y-100857142D01*
X138535714Y-100761904D01*
X138583333Y-100571428D01*
X138583333Y-100333333D01*
X138535714Y-100142857D01*
X138488095Y-100047619D01*
X138440476Y-100000000D01*
X138345238Y-99952380D01*
X137630952Y-100047619D02*
X137583333Y-100000000D01*
X137488095Y-99952380D01*
X137250000Y-99952380D01*
X137154761Y-100000000D01*
X137107142Y-100047619D01*
X137059523Y-100142857D01*
X137059523Y-100238095D01*
X137107142Y-100380952D01*
X137678571Y-100952380D01*
X137059523Y-100952380D01*
X136107142Y-100952380D02*
X136678571Y-100952380D01*
X136392857Y-100952380D02*
X136392857Y-99952380D01*
X136488095Y-100095238D01*
X136583333Y-100190476D01*
X136678571Y-100238095D01*
D11*
X146847600Y-101287000D02*
X141387600Y-101287000D01*
X141387600Y-101287000D02*
X141387600Y-136967000D01*
X141387600Y-136967000D02*
X154307600Y-136967000D01*
X154307600Y-136967000D02*
X154307600Y-101287000D01*
X154307600Y-101287000D02*
X148847600Y-101287000D01*
X148847600Y-101287000D02*
G75*
G02*
X146847600Y-101287000I-1000000J0D01*
G01*
D10*
X143333333Y-101952380D02*
X143333333Y-102666666D01*
X143380952Y-102809523D01*
X143476190Y-102904761D01*
X143619047Y-102952380D01*
X143714285Y-102952380D01*
X142952380Y-101952380D02*
X142333333Y-101952380D01*
X142666666Y-102333333D01*
X142523809Y-102333333D01*
X142428571Y-102380952D01*
X142380952Y-102428571D01*
X142333333Y-102523809D01*
X142333333Y-102761904D01*
X142380952Y-102857142D01*
X142428571Y-102904761D01*
X142523809Y-102952380D01*
X142809523Y-102952380D01*
X142904761Y-102904761D01*
X142952380Y-102857142D01*
M02*
